<svg width="245" height="215" viewBox="0 0 245 215" fill="none" xmlns="http://www.w3.org/2000/svg">
<path d="M204.002 56.8933C204.002 56.8933 183.923 47.5241 156.935 46.5935C156.935 46.5935 150.169 47.2087 149.459 53.4705C148.749 59.7324 154.143 62.9186 158.386 62.6662C162.614 62.4139 181.336 64.9849 195.059 69.8587C195.043 69.8745 202.851 62.0195 204.002 56.8933Z" fill="url(#paint0_linear_415_2159)"/>
<path d="M207.298 33.5177C207.298 33.5177 193.733 22.9655 172.408 20.7573C172.408 20.7573 159.663 20.9781 159.947 32.3505C160.215 43.0603 168.212 47.3033 173.512 48.2654C178.812 49.2276 191.856 51.5778 204.001 56.8933C204.001 56.8933 210.72 47.0194 207.298 33.5177Z" fill="url(#paint1_linear_415_2159)"/>
<path d="M84.5206 74.4802C69.3784 80.2847 51.5234 89.2595 36.9649 102.73C36.9649 102.73 26.9017 98.4079 24.2676 93.5813C24.2676 93.5813 43.7788 71.9092 81.1609 58.092C81.1609 58.092 88.9212 55.663 91.0664 62.4296C93.937 71.4518 84.5206 74.4802 84.5206 74.4802Z" fill="url(#paint2_linear_415_2159)"/>
<path d="M24.2684 93.5971C24.2684 93.5971 48.9058 67.8871 86.9189 56.1519C86.9189 56.1519 99.7581 51.3254 96.6666 37.9341C93.5751 24.5428 81.5087 28.0917 81.5087 28.0917C81.5087 28.0917 34.5997 40.6628 12.2178 73.5496C12.2493 73.5338 12.3913 87.2879 24.2684 93.5971Z" fill="url(#paint3_linear_415_2159)"/>
<path d="M86.5717 26.4829C31.2084 43.0445 12.2334 73.5181 12.2334 73.5181C8.41634 63.2971 17.2966 51.0572 17.2966 51.0572C34.221 27.0822 62.0447 14.6058 81.4455 8.48582C81.4455 8.48582 90.3257 5.83595 93.0702 14.2588C95.8147 22.6816 86.5717 26.4829 86.5717 26.4829Z" fill="url(#paint4_linear_415_2159)"/>
<path d="M144.001 18.4071C175.532 18.4544 217.898 25.9781 232.63 64.3539C232.63 64.3539 224.349 34.4009 189.128 12.3187C189.128 12.3187 172.55 1.57725 142.597 0.0157186C140.042 -0.110466 137.455 0.520459 135.373 2.00312C133.496 3.32806 131.824 5.39433 131.935 8.59625C132.14 15.6783 138.528 18.4544 144.001 18.4071Z" fill="url(#paint5_linear_415_2159)"/>
<path d="M135.025 104.26C135.025 104.26 183.212 91.2942 201.792 60.8523C220.373 30.4103 193.07 13.6436 189.127 12.3029C189.127 12.3029 214.206 23.5964 230.689 57.8869C247.187 92.1775 206.193 133.424 148.606 151.311C148.606 151.311 118.116 162.431 112.533 135.096C107.075 108.361 135.025 104.26 135.025 104.26Z" fill="url(#paint6_linear_415_2159)"/>
<path d="M34.9137 101.357C34.9137 101.357 49.693 109.26 46.9958 129.008C44.2829 148.755 30.9862 146.563 25.6234 144.292C20.2605 142.02 -0.275975 126.926 0.3234 101.389C0.3234 101.389 1.75876 78.4392 17.2952 51.073C17.2952 51.073 -3.11511 78.5023 34.9137 101.357Z" fill="url(#paint7_linear_415_2159)"/>
<path d="M0.403434 105.238C0.403434 105.238 -2.97199 130.222 9.80417 161.295C9.80417 161.295 21.1765 184.86 59.4577 194.797C62.565 195.601 65.7984 195.996 69.0004 195.743C74.9626 195.286 82.7387 192.746 81.7765 182.415C80.4043 167.636 71.9815 159.923 59.7889 157.21C47.6121 154.497 3.03753 144.102 0.403434 105.238Z" fill="url(#paint8_linear_415_2159)"/>
<path d="M169.46 143.55C169.46 143.55 147.22 151.926 153.008 172.778C158.797 193.63 181.053 182.667 181.053 182.667C181.053 182.667 241.369 156.484 244.129 110.348C244.129 110.348 244.776 89.4803 232.016 60.5367C232.016 60.5367 251.069 106.215 169.46 143.55Z" fill="url(#paint9_linear_415_2159)"/>
<path d="M9.80371 161.295C9.80371 161.295 26.3023 197.115 94.0948 200.223C94.0948 200.223 101.619 200.112 103.969 206.579C106.303 213.046 100.436 215.254 95.8771 214.971C95.8771 214.971 51.9808 215.176 23.2108 185.112C23.2108 185.112 13.2738 170.743 9.80371 161.295Z" fill="url(#paint10_linear_415_2159)"/>
<path d="M214.775 161.153C214.775 161.153 209.917 165.144 211.21 170.696C212.504 176.248 216.005 176.153 219.428 173.456C222.866 170.759 238.056 154.055 241.905 137.099C241.905 137.099 244.886 122.304 244.129 109.906C244.129 109.922 245.848 136.358 214.775 161.153Z" fill="url(#paint11_linear_415_2159)"/>
<defs>
<linearGradient id="paint0_linear_415_2159" x1="101.722" y1="42.9212" x2="192.399" y2="60.7255" gradientUnits="userSpaceOnUse">
<stop stop-color="#8C15E8"/>
<stop offset="0.9588" stop-color="#241645"/>
</linearGradient>
<linearGradient id="paint1_linear_415_2159" x1="69.5476" y1="12.145" x2="220.578" y2="45.752" gradientUnits="userSpaceOnUse">
<stop offset="0.2081" stop-color="#1E82EA"/>
<stop offset="0.2898" stop-color="#1E7DE2"/>
<stop offset="0.417" stop-color="#1C6ECC"/>
<stop offset="0.574" stop-color="#1B57A8"/>
<stop offset="0.7545" stop-color="#183776"/>
<stop offset="0.9525" stop-color="#150E36"/>
<stop offset="1" stop-color="#140326"/>
</linearGradient>
<linearGradient id="paint2_linear_415_2159" x1="48.3036" y1="86.3594" x2="137.028" y2="28.9035" gradientUnits="userSpaceOnUse">
<stop offset="0.0412" stop-color="#241645"/>
<stop offset="1" stop-color="#8C15E8"/>
</linearGradient>
<linearGradient id="paint3_linear_415_2159" x1="-0.202697" y1="93.0835" x2="162.594" y2="-12.3391" gradientUnits="userSpaceOnUse">
<stop stop-color="#140326"/>
<stop offset="0.2653" stop-color="#18306C"/>
<stop offset="0.6277" stop-color="#1C6BC6"/>
<stop offset="0.7919" stop-color="#1E82EA"/>
</linearGradient>
<linearGradient id="paint4_linear_415_2159" x1="7.09357" y1="49.1179" x2="96.5498" y2="30.8487" gradientUnits="userSpaceOnUse">
<stop offset="0.2056" stop-color="#241645"/>
<stop offset="0.3004" stop-color="#2A164F"/>
<stop offset="0.4605" stop-color="#3B1669"/>
<stop offset="0.6665" stop-color="#571694"/>
<stop offset="0.9077" stop-color="#7C15CF"/>
<stop offset="1" stop-color="#8C15E8"/>
</linearGradient>
<linearGradient id="paint5_linear_415_2159" x1="138.595" y1="41.976" x2="224.495" y2="24.4329" gradientUnits="userSpaceOnUse">
<stop stop-color="#8C15E8"/>
<stop offset="0.0923" stop-color="#7C15CF"/>
<stop offset="0.3335" stop-color="#571694"/>
<stop offset="0.5395" stop-color="#3B1669"/>
<stop offset="0.6996" stop-color="#2A164F"/>
<stop offset="0.7944" stop-color="#241645"/>
</linearGradient>
<linearGradient id="paint6_linear_415_2159" x1="122.123" y1="119.176" x2="231.246" y2="43.9949" gradientUnits="userSpaceOnUse">
<stop stop-color="#19EDD0"/>
<stop offset="0.126" stop-color="#24D9D2"/>
<stop offset="0.3846" stop-color="#3FA5D8"/>
<stop offset="0.7496" stop-color="#6C52E1"/>
<stop offset="1" stop-color="#8C15E8"/>
</linearGradient>
<linearGradient id="paint7_linear_415_2159" x1="52.0576" y1="107.83" x2="-7.47181" y2="88.1178" gradientUnits="userSpaceOnUse">
<stop stop-color="#19EDD0"/>
<stop offset="1" stop-color="#8C15E8"/>
</linearGradient>
<linearGradient id="paint8_linear_415_2159" x1="6.41041" y1="156.376" x2="73.9144" y2="142.59" gradientUnits="userSpaceOnUse">
<stop stop-color="#8C15E8"/>
<stop offset="1" stop-color="#1E82EA"/>
</linearGradient>
<linearGradient id="paint9_linear_415_2159" x1="149.746" y1="159.249" x2="257.535" y2="89.4467" gradientUnits="userSpaceOnUse">
<stop offset="0.0412" stop-color="#1E82EA"/>
<stop offset="0.8496" stop-color="#8C15E8"/>
</linearGradient>
<linearGradient id="paint10_linear_415_2159" x1="24.3778" y1="200.8" x2="76.3695" y2="178.909" gradientUnits="userSpaceOnUse">
<stop offset="0.0412" stop-color="#241645"/>
<stop offset="1" stop-color="#8C15E8"/>
</linearGradient>
<linearGradient id="paint11_linear_415_2159" x1="214.936" y1="150.113" x2="254.787" y2="130.501" gradientUnits="userSpaceOnUse">
<stop stop-color="#8C15E8"/>
<stop offset="0.9588" stop-color="#241645"/>
</linearGradient>
</defs>
</svg>
